# AST/ASF file generated using VICON BodyLanguage
# -----------------------------------------------
:version 1.10
:name VICON
:units
  mass 1.0
  length 0.45
  angle deg
:documentation
   .ast/.asf automatically generated from VICON data using
   VICON BodyBuilder and BodyLanguage model FoxedUp or BRILLIANT.MOD
:root
   order TX TY TZ RX RY RZ
   axis XYZ
   position 0 0 0  
   orientation 0 0 0 
:bonedata
  begin
     id 1 
     name lhipjoint
     direction 0.547975 -0.797114 0.253638 
     length 2.36201 
     axis 0 0 0  XYZ
  end
  begin
     id 2 
     name lfemur
     direction 0.34202 -0.939693 0  
     length 7.69075  
     axis 0 0 20  XYZ
    dof rx ry rz
    limits (-160.0 20.0)
           (-70.0 70.0)
           (-60.0 70.0)
  end
  begin
     id 3 
     name ltibia
     direction 0.34202 -0.939693 0   
     length 7.91399   
     axis 0 0 20   XYZ
    dof rx
    limits (-10.0 170.0)
  end
  begin
     id 4 
     name lfoot
     direction 0.0705293 -0.193778 0.978507   
     length 2.13618   
     axis -90 7.62852e-016 20   XYZ
    dof rx rz
    limits (-45.0 90.0)
           (-70.0 20.0)
  end
  begin
     id 5 
     name ltoes
     direction 1.53592e-011 -4.21925e-011 1   
     length 1.07518   
     axis -90 7.62852e-016 20   XYZ
    dof rx
    limits (-90.0 20.0)
  end
  begin
     id 6 
     name rhipjoint
     direction -0.57 -0.782963 0.249136   
     length 2.4047  
     axis 0 0 0  XYZ 
  end
  begin
     id 7 
     name rfemur
     direction -0.34202 -0.939693 0   
     length 7.51486   
     axis 0 0 -20   XYZ
    dof rx ry rz
    limits (-160.0 20.0)
           (-70.0 70.0)
           (-70.0 60.0)
  end
  begin
     id 8 
     name rtibia
     direction -0.34202 -0.939693 0   
     length 8.08317   
     axis 0 0 -20   XYZ
    dof rx
    limits (-10.0 170.0)
 end
 begin
     id 9 
     name rfoot
     direction -0.104954 -0.281256 0.953876   
     length 2.30343  
     axis -90 -7.62852e-016 -20   XYZ
    dof rx rz
    limits (-45.0 90.0)
           (-20.0 70.0)
  end
  begin
     id 10 
     name rtoes
     direction -1.53556e-011 -4.21922e-011 1   
     length 1.14803   
     axis -90 -7.62852e-016 -20   XYZ
    dof rx
    limits (-90.0 20.0)
  end
  begin
     id 11 
     name lowerback
     direction -0.0152855 0.99353 -0.11254   
     length 2.05311   
     axis 0 0 0   XYZ
    dof rx ry rz
    limits (-20.0 45.0)
           (-30.0 30.0)
           (-30.0 30.0)
  end
  begin
     id 12 
     name upperback
     direction -0.00157509 0.999443 -0.033332   
     length 2.06353   
     axis 0 0 0   XYZ
    dof rx ry rz
    limits (-20.0 45.0)
           (-30.0 30.0)
           (-30.0 30.0)
  end
  begin
     id 13 
     name thorax
     direction 0.00577788 0.999804 0.0189484   
     length 2.08472   
     axis 0 0 0   XYZ
    dof rx ry rz
    limits (-20.0 45.0)
           (-30.0 30.0)
           (-30.0 30.0)
  end
  begin
     id 14 
     name lowerneck
     direction -1.09301e-005 0.994719 0.10264   
     length 1.76249   
     axis 0 0 0   XYZ
    dof rx ry rz
    limits (-20.0 45.0)
           (-30.0 30.0)
           (-30.0 30.0)
  end
  begin
     id 15 
     name upperneck
     direction 0.0495018 0.988526 -0.142706   
     length 1.77897   
     axis 0 0 0   XYZ
    dof rx ry rz
    limits (-20.0 45.0)
           (-30.0 30.0)
           (-30.0 30.0)
  end
  begin
     id 16
     name head
     direction 0.0142736 0.998114 -0.0597101  
     length 1.78934  
     axis 0 0 0   XYZ
    dof rx ry rz
    limits (-20.0 45.0)
           (-30.0 30.0)
           (-30.0 30.0)
  end
  begin
     id 17 
     name lclavicle
     direction 0.918111 0.396107 -0.0130883  
     length 3.37276  
     axis 0 0 0   XYZ
    dof ry rz
    limits (-20.0 10.0)
           (0.0 20.0)
  end
  begin
     id 18 
     name lhumerus
     direction 1 -4.48975e-011 -3.26108e-027   
     length 5.34298   
     axis 180 -30 -90   XYZ
    dof rx ry rz
    limits (-60.0 90.0)
           (-90.0 90.0)
           (-90.0 90.0)
  end
  begin
     id 19
     name lradius
     direction 1 -4.48964e-011 -8.84413e-028   
     length 3.67262   
     axis 180 -30 -90   XYZ
    dof rx
    limits (-10.0 170.0)
  end
  begin
     id 20
     name lwrist
     direction 1 -4.48991e-011 -1.24264e-027   
     length 1.83631   
     axis -2.17013e-015 90 90   XYZ
    dof ry
    limits (-180.0 0.0)
 end
  begin
     id 21 
     name lhand
     direction 1 -4.48855e-011 -2.48528e-027   
     length 0.599298   
     axis 1.58582e-015 90 90   XYZ
    dof rx rz
    limits (-90.0 90.0)
           (-45.0 45.0)
  end
  begin
     id 22 
     name lfingers
     direction 1 -4.48811e-011 -4.97056e-027   
     length 0.48317   
     axis 3.17164e-015 90 90   XYZ
    dof rx
    limits (0.0 90.0)
  end
  begin
     id 23
     name lthumb
     direction 0.707107 -6.34882e-011 0.707107   
     length 0.693738   
     axis -90 45 2.85299e-015   XYZ
    dof rx rz
    limits (-45.0 45.0)
           (-45.0 45.0)
  end
  begin
     id 24 
     name rclavicle
     direction -0.920511 0.384752 -0.0680135   
     length 3.43787  
     axis 0 0 0   XYZ 
    dof ry rz
    limits (-10.0 20.0)
           (-20.0 0.0)
  end
  begin
     id 25 
     name rhumerus
     direction -0.999976 -0.00330524 0.00603274  
     length 5.5498   
     axis 180 30 90   XYZ
    dof rx ry rz
    limits (-90.0 60.0)
           (-90.0 90.0)
           (-90.0 90.0)
  end
  begin
     id 26 
     name rradius
     direction -1 -4.48967e-011 8.62438e-027   
     length 3.69401   
     axis 180 30 90   XYZ
    dof rx
    limits (-10.0 170.0)
  end
  begin
     id 27 
     name rwrist
     direction -1 -4.4897e-011 9.54866e-027   
     length 1.84701   
     axis -7.69462e-015 -90 -90   XYZ
    dof ry
    limits (-180.0 0.0)
  end
  begin
     id 28
     name rhand
     direction -1 -4.48982e-011 1.90973e-026   
     length 0.638113   
     axis -1.21857e-014 -90 -90   XYZ
    dof rx rz
    limits (-90.0 90.0)
           (-45.0 45.0)
  end
  begin
     id 29
     name rfingers
     direction -1 -4.48936e-011 3.81946e-026   
     length 0.514463   
     axis -2.43714e-014 -90 -90   XYZ
    dof rx
    limits (0.0 90.0)
  end
  begin
     id 30
     name rthumb
     direction -0.707107 -6.34942e-011 0.707107   
     length 0.738669   
     axis -90 -45 -2.85299e-015   XYZ
    dof rx rz
    limits (-45.0 45.0)
           (-45.0 45.0)
  end
:hierarchy
  begin
    root lhipjoint rhipjoint lowerback
    lhipjoint lfemur
    lfemur ltibia
    ltibia lfoot
    lfoot ltoes
    rhipjoint rfemur
    rfemur rtibia
    rtibia rfoot
    rfoot rtoes
    lowerback upperback
    upperback thorax
    thorax lowerneck lclavicle rclavicle
    lowerneck upperneck
    upperneck head
    lclavicle lhumerus
    lhumerus lradius
    lradius lwrist
    lwrist lhand lthumb
    lhand lfingers
    rclavicle rhumerus
    rhumerus rradius
    rradius rwrist
    rwrist rhand rthumb
    rhand rfingers
  end

#!OML:ASF F:\twosubjects\two\Thursday\Session 1\Rory.ASF
:FULLY-SPECIFIED
:DEGREES
160
root 12.8712 15.8888 7.98087 -158.156 -82.9787 158.601
lowerback 9.55015 0.109294 -4.12613
upperback 2.38412 -0.364078 -0.662186
thorax -2.85544 -0.19683 1.67942
lowerneck -11.2907 0.553845 -0.408728
upperneck 5.4699 0.717217 0.94825
head 3.80403 0.389088 0.437884
rclavicle -6.21202e-016 6.55989e-015
rhumerus -40.8216 -46.059 -67.2494
rradius 20.8816
rwrist 5.38573
rhand -18.3798 20.4891
rfingers 7.12502
rthumb 7.90375 -9.34313
lclavicle -6.21202e-016 6.55989e-015
lhumerus -40.5923 37.8059 69.9207
lradius 24.5767
lwrist -2.0721
lhand -6.67789 33.9551
lfingers 7.12502
lthumb 19.1806 63.0292
rfemur -32.2666 5.74511 21.755
rtibia 77.5821
rfoot -33.093 -5.92477
rtoes -8.86049
lfemur -25.8609 11.9592 -23.241
ltibia 74.9757
lfoot -35.7273 -6.25708
ltoes -0.748001
161
root 12.8413 15.9653 7.98709 -158.978 -83.1154 159.427
lowerback 9.31521 0.00939927 -3.79271
upperback 2.2843 -0.448095 -0.626026
thorax -2.82666 -0.236767 1.53812
lowerneck -11.5622 0.607961 -0.160434
upperneck 5.82475 0.765934 0.772959
head 3.98559 0.411677 0.341869
rclavicle -2.12948e-014 -1.27222e-014
rhumerus -41.6321 -47.5439 -65.3613
rradius 20.2312
rwrist 10.3609
rhand -15.3288 21.481
rfingers 7.12502
rthumb 10.8477 -8.21887
lclavicle -2.12948e-014 -1.27222e-014
lhumerus -40.6665 38.2611 69.8586
lradius 24.2668
lwrist -1.67202
lhand -6.77199 34.1306
lfingers 7.12502
lthumb 19.0901 63.2137
rfemur -31.5729 5.42708 21.9437
rtibia 76.4878
rfoot -33.1307 -5.61881
rtoes -6.07072
lfemur -25.3388 11.5635 -23.2155
ltibia 74.0156
lfoot -35.3905 -5.59864
ltoes -1.66823
162
root 12.8064 16.0562 7.99198 -157.585 -82.97 158.126
lowerback 8.87118 0.0409548 -3.80997
upperback 2.16797 -0.387365 -0.72408
thorax -2.70518 -0.20492 1.43691
lowerneck -12.2446 0.746902 -0.104955
upperneck 6.67491 0.957568 0.590589
head 4.43059 0.500312 0.293321
rclavicle 1.67103e-014 2.0276e-014
rhumerus -42.9577 -49.4574 -62.8094
rradius 19.7523
rwrist 15.7897
rhand -13.6254 22.8622
rfingers 7.12502
rthumb 12.4902 -6.74452
lclavicle 1.67103e-014 2.0276e-014
lhumerus -40.8129 38.5914 69.4687
lradius 24.0872
lwrist -1.43177
lhand -6.7937 34.3105
lfingers 7.12502
lthumb 19.0692 63.3957
rfemur -30.9388 5.59691 21.7694
rtibia 75.278
rfoot -32.6241 -6.47193
rtoes -7.585
lfemur -24.7669 11.2472 -23.4764
ltibia 72.8606
lfoot -34.8757 -5.8923
ltoes 0.245418
163
root 12.7719 16.1663 7.99316 -156.512 -82.528 157.102
lowerback 8.41492 0.226982 -3.99089
upperback 2.08931 -0.137336 -0.862868
thorax -2.54655 -0.0804677 1.36643
lowerneck -12.6422 0.870327 -0.114741
upperneck 7.51887 1.12044 0.609134
head 4.30068 0.584579 0.288006
rclavicle -1.52816e-014 -4.07509e-015
rhumerus -43.5828 -50.0115 -61.6452
rradius 20.1794
rwrist 18.0463
rhand -14.2351 23.4268
rfingers 7.12502
rthumb 11.9024 -6.21488
lclavicle -1.52816e-014 -4.07509e-015
lhumerus -40.6964 38.7657 68.9814
lradius 23.7204
lwrist -1.37167
lhand -7.44791 34.6035
lfingers 7.12502
lthumb 18.44 63.7495
rfemur -30.2207 6.01757 21.4694
rtibia 73.9698
rfoot -31.8892 -7.48688
rtoes -10.6666
lfemur -24.0526 11.063 -23.7663
ltibia 71.5158
lfoot -33.9623 -6.4913
ltoes 2.32866
164
root 12.7362 16.3019 8.00118 -157.571 -82.2949 158.128
lowerback 8.05949 0.334811 -3.85521
upperback 2.05668 0.0386358 -0.839644
thorax -2.39231 0.00578689 1.29609
lowerneck -12.6838 0.918901 0.0278873
upperneck 7.52214 1.16834 0.537193
head 4.30954 0.608036 0.246544
rclavicle -1.56294e-014 7.45443e-015
rhumerus -43.0205 -49.1899 -61.8579
rradius 21.0453
rwrist 16.7219
rhand -15.634 23.5218
rfingers 7.12502
rthumb 10.5532 -6.19323
lclavicle -1.56294e-014 7.45443e-015
lhumerus -40.4295 38.8718 68.5633
lradius 23.3004
lwrist -1.0492
lhand -8.75041 34.4054
lfingers 7.12502
lthumb 17.1867 63.6654
rfemur -29.3967 6.34865 21.4438
rtibia 72.5822
rfoot -31.1499 -7.81932
rtoes -12.0571
lfemur -23.154 10.7134 -23.6972
ltibia 69.9752
lfoot -32.7472 -6.81486
ltoes 3.57722
165
root 12.6962 16.4595 8.00446 -156.857 -82.0214 157.501
lowerback 7.56469 0.392977 -4.0815
upperback 1.95218 0.129331 -0.738984
thorax -2.2304 0.0531436 1.51858
lowerneck -12.5932 0.906727 0.265208
upperneck 7.56645 1.14901 0.18406
head 4.31205 0.584322 0.0976316
rclavicle -7.647e-015 3.37934e-015
rhumerus -41.9441 -47.6726 -62.3797
rradius 22.1202
rwrist 13.2755
rhand -16.3359 23.0584
rfingers 7.12502
rthumb 9.87607 -6.68992
lclavicle -7.647e-015 3.37934e-015
lhumerus -40.5169 39.1437 67.8306
lradius 23.1325
lwrist -1.13636
lhand -9.41298 34.163
lfingers 7.12502
lthumb 16.5489 63.4774
rfemur -28.6873 6.68409 21.0931
rtibia 71.0889
rfoot -30.2554 -7.82561
rtoes -13.6005
lfemur -22.3497 10.3496 -23.8539
ltibia 68.4097
lfoot -31.4287 -6.86296
ltoes 2.55716
166
root 12.6573 16.6273 7.99929 -153.414 -81.43 154.113
lowerback 7.16365 0.505612 -4.79011
upperback 1.77608 0.242127 -0.873513
thorax -2.19737 0.11508 1.76707
lowerneck -12.6644 0.928771 0.220554
upperneck 7.85137 1.18839 0.164137
head 4.41142 0.601306 0.102894
rclavicle 2.8889e-014 -1.39149e-015
rhumerus -41.5781 -46.7436 -62.2663
rradius 23.3896
rwrist 9.91514
rhand -17.9405 22.751
rfingers 7.12502
rthumb 8.32771 -7.06484
lclavicle 2.8889e-014 -1.39149e-015
lhumerus -40.9859 39.5167 66.3093
lradius 23.2284
lwrist -2.07313
lhand -8.83944 34.3052
lfingers 7.12502
lthumb 17.101 63.5726
rfemur -27.8813 7.40081 20.1599
rtibia 69.368
rfoot -29.0877 -7.54967
rtoes -14.8245
lfemur -21.5395 10.1051 -24.5526
ltibia 66.7667
lfoot -29.8714 -6.39411
ltoes -2.49718
167
root 12.6855 16.7751 7.97442 -152.39 -82.2315 153.145
lowerback 7.80259 0.191847 -4.81131
upperback 1.37855 -0.218194 -0.783009
thorax -2.93415 -0.0877617 1.91631
lowerneck -12.6477 1.07227 0.226264
upperneck 8.04583 1.3594 0.349972
head 4.46749 0.697178 0.172706
rclavicle 4.42296e-015 1.59028e-015
rhumerus -41.8672 -46.5286 -61.6185
rradius 24.7823
rwrist 7.3717
rhand -20.1088 22.893
rfingers 7.12502
rthumb 6.23477 -6.99525
lclavicle 4.42296e-015 1.59028e-015
lhumerus -41.5958 39.8829 64.2367
lradius 23.4425
lwrist -2.63699
lhand -8.52468 34.541
lfingers 7.12502
lthumb 17.4039 63.7818
rfemur -27.2963 7.66991 20.548
rtibia 67.5375
rfoot -27.0064 -7.99607
rtoes -15.9323
lfemur -21.5226 9.10387 -24.0163
ltibia 65.4696
lfoot -27.4303 -6.76447
ltoes -5.40133
168
root 12.6101 16.9805 7.99812 -155.204 -81.6411 155.863
lowerback 7.08805 0.142789 -4.31311
upperback 1.35065 -0.202839 -0.881401
thorax -2.5678 -0.0901117 1.53151
lowerneck -12.3142 1.33028 0.512825
upperneck 7.99218 1.66841 0.253543
head 4.39948 0.852138 0.116998
rclavicle 6.58474e-015 -2.73329e-014
rhumerus -41.7877 -46.144 -61.0999
rradius 26.1454
rwrist 5.41248
rhand -21.9212 22.1216
rfingers 7.12502
rthumb 4.48484 -7.81096
lclavicle 6.58474e-015 -2.73329e-014
lhumerus -42.2266 40.3213 62.0758
lradius 23.7453
lwrist -2.14834
lhand -9.38346 34.9106
lfingers 7.12502
lthumb 16.5773 64.2225
rfemur -25.6058 8.45948 20.4289
rtibia 65.2522
rfoot -25.0717 -8.25354
rtoes -20.2745
lfemur -20.2331 9.1135 -23.8836
ltibia 63.7595
lfoot -25.4521 -7.46672
ltoes -3.69326
169
root 12.5555 17.1861 8.00259 -156.058 -81.4163 156.754
lowerback 6.37433 0.0680784 -4.09054
upperback 1.32269 -0.245268 -0.904884
thorax -2.19702 -0.117571 1.38404
lowerneck -12.2438 1.43771 0.812501
upperneck 8.22597 1.79315 -0.0298273
head 4.46569 0.905735 -0.00907493
rclavicle -6.08778e-015 2.20651e-014
rhumerus -41.6284 -46.0289 -60.2682
rradius 27.4527
rwrist 3.39002
rhand -23.7453 21.1985
rfingers 7.12502
rthumb 2.72333 -8.76389
lclavicle -6.08778e-015 2.20651e-014
lhumerus -42.3803 40.2967 60.3884
lradius 24.0504
lwrist -1.18888
lhand -10.3241 35.2923
lfingers 7.12502
lthumb 15.6715 64.6776
rfemur -24.3041 8.72183 20.2588
rtibia 63.0103
rfoot -23.0358 -8.15869
rtoes -25.261
lfemur -19.3549 8.83063 -23.7184
ltibia 62.1028
lfoot -22.5923 -8.64693
ltoes -0.0965574
